# xmcd
#
# Track frame offsets:
#	150
#	13397
#	32782
#	46994
#	75670
#	88147
#	106144
#	124574
#	152691
#	164480
#	183931
#	193840
#	229482
#
# Disc length: 3284 seconds
#
# Revision: 5
# Processed by: cddbd v1.5.2PL0 Copyright (c) Steve Scherf et al.
# Submitted via: EasyCDDAExtractor 11.1.0.1
#
DISCID=a70cd20d
DTITLE=Lil' Ed And The Blues Imperials - Heads Up!
DYEAR=2002
DGENRE=Blues
TTITLE0=Woman In The Castle
TTITLE1=Never Miss Your Water
TTITLE2=Natural Man
TTITLE3=The Creeper
TTITLE4=My Mind Is Gone
TTITLE5=Four Leaf Clover
TTITLE6=Lil' Ed's Home Cookin'
TTITLE7=Black Night
TTITLE8=Empty House Tour
TTITLE9=Computer Girl
TTITLE10=Ed Heads' Boogie
TTITLE11=I Still Love You
TTITLE12=I Love My Baby
EXTD=YEAR: 2002
EXTT0=
EXTT1=
EXTT2=
EXTT3=
EXTT4=
EXTT5=
EXTT6=
EXTT7=
EXTT8=
EXTT9=
EXTT10=
EXTT11=
EXTT12=
PLAYORDER=
